# xmcd CD database file generated by Grip 3.2.0
# 
# Track frame offsets:
#       150
#       14676
#       28276
#       42503
#       56790
#       71089
#       87250
#       100879
#       117416
#       134404
#       150232
#       166535
#       182258
#       193801
#       208910
#       224560
#       240049
#       253555
# 
# Disc length: 3561 seconds
# 
# Revision: 2
# Processed by: cddbd v1.5.1PL0 Copyright (c) Steve Scherf et al.
# Submitted via: Grip 3.2.0
# 
DISCID=fe0de712
DTITLE=John Lee Hooker - Young and Wild - 1948 - 1949-CD1
DYEAR=1948
DGENRE=Blues
TTITLE0=sally mae
TTITLE1=she left me
TTITLE2=boogie chillen
TTITLE3=stomp boogie
TTITLE4=who's been jiving you ?
TTITLE5=black man blues
TTITLE6=poor joe
TTITLE7=helpless blues
TTITLE8=going mad blues
TTITLE9=grievin' blues
TTITLE10=low down midnite boogie
TTITLE11=landing blues
TTITLE12=twister blues
TTITLE13=shady grove blues
TTITLE14=goin' down slow
TTITLE15=just like a woman
TTITLE16=drifting from door to door
TTITLE17=hobo blues
EXTD=
EXTT0=
EXTT1=
EXTT2=
EXTT3=
EXTT4=
EXTT5=
EXTT6=
EXTT7=
EXTT8=
EXTT9=
EXTT10=
EXTT11=
EXTT12=
EXTT13=
EXTT14=
EXTT15=
EXTT16=
EXTT17=
PLAYORDER=
